<?xml version="1.0" encoding="UTF-8" standalone="no"?>
<!DOCTYPE svg PUBLIC "-//W3C//DTD SVG 1.1//EN" "http://www.w3.org/Graphics/SVG/1.1/DTD/svg11.dtd">
<svg width="100%" height="100%" viewBox="40 376 985 272" version="1.1" xmlns="http://www.w3.org/2000/svg" xmlns:xlink="http://www.w3.org/1999/xlink" xml:space="preserve" xmlns:serif="http://www.serif.com/" style="fill-rule:evenodd;clip-rule:evenodd;stroke-linejoin:round;stroke-miterlimit:2;">
    <g transform="matrix(1.04139,0,0,1.04139,-310.497683,49.487592)">
        <path d="M563.22,530.73L637.07,487.21L637.07,400.89L563.5,357.24L489.51,400.66L489.18,425.8C482,422.17 475.51,421.31 467.04,425.19L466.92,388.03L563.22,331.35L619.56,364.25L659.75,388.13L659.77,499.84L563.62,556.65L520.18,530.97L541.73,517.63L563.22,530.72L563.22,530.73Z" style="fill-rule:nonzero;"/>
        <path d="M461.15,530.67L534.38,487.36L534.85,461.26C542.59,464.61 549.54,465.34 557.16,461.11L557.18,500.16L460.91,556.96L364.51,500.07L364.35,388.22L460.73,331.3L504.52,357.16L482.6,370.28L460.64,357.24L386.96,400.96L386.86,487.03L461.17,530.67L461.15,530.67Z" style="fill-rule:nonzero;"/>
    </g>
    <g transform="matrix(1.19342,0,0,1.19342,102.084273,-261.264856)">
        <path d="M754.4,698.28L729.71,698.65L711.45,671.43L691.56,671.23L691.29,698.53L668.92,698.31L668.72,600.97L712,600.68C733.81,600.53 752.9,613.11 752.28,637.02C751.94,650.05 744.92,661.2 733.15,666.62L754.4,698.27L754.4,698.28ZM715.25,651.69C724.17,650.57 729.25,643.02 729.1,635.5C728.95,627.98 723.64,620.59 715.01,620.1C707.07,619.65 699.49,619.85 691.38,620.1L691.46,652.36C699.53,652.46 707.03,652.72 715.25,651.68L715.25,651.69Z" style="fill-rule:nonzero;"/>
        <path d="M628.88,698.55L628.61,657.93C628.58,653.04 627.38,647.6 623.73,644.27C619.02,639.98 612.29,639.82 606.2,642.58C601.64,644.65 597.52,650.45 597.47,657.12L597.13,698.38L575.51,698.3L575.48,596.17L597.14,596L597.32,629.82C608.93,620.87 624.57,618.82 637.34,626.57C645.6,631.58 650.34,641.18 650.38,650.96L650.57,698.35L628.89,698.54L628.88,698.55Z" style="fill-rule:nonzero;"/>
        <path d="M512.09,659.43C511.74,669.16 516.53,677.34 524.46,679.83C533.42,682.64 542.59,680.26 547.28,671.05C553.24,673.53 558.77,676.32 564.83,679.83C558.22,693.78 544.64,699.97 530.06,699.88C506.77,699.73 489.01,681.78 490.34,658.53C491.01,646.85 496.05,635.68 506.23,629.04C521.17,619.3 540.7,619.51 555.35,629.35C559.64,632.23 562.51,636.03 564.16,640.63L547.77,650.29C543.35,642.09 534.82,638.58 526.06,640.73C518.37,642.62 512.42,650.06 512.09,659.43Z" style="fill-rule:nonzero;"/>
        <path d="M343.63,679.25L343.41,698.49L273.58,698.45L273.7,600.7L296.26,600.82L296.31,679.13L343.63,679.25Z" style="fill-rule:nonzero;"/>
        <path d="M481.03,678.89L486.5,694.38C480.67,699.17 473.41,699.6 465.98,699.58C451.96,699.54 440.88,689.31 440.81,674.96L440.64,642.16L430.1,641.72L429.92,624.98L440.67,624.69L440.91,605.83L462.79,605.83L462.95,624.7L481.22,624.91L481.22,641.92L462.82,642.03L462.86,672.16C462.86,674.71 464.52,678.79 466.75,679.88C471.37,682.14 475.66,681.18 481.02,678.9L481.03,678.89Z" style="fill-rule:nonzero;"/>
        <path d="M715.25,651.69C707.03,652.73 699.53,652.47 691.46,652.37L691.38,620.11C699.5,619.86 707.08,619.65 715.01,620.11C723.63,620.6 728.95,627.84 729.1,635.51C729.25,643.18 724.17,650.57 715.25,651.7L715.25,651.69Z" style="fill:white;fill-rule:nonzero;"/>
        <g>
            <path d="M400.62,690.22C393.12,700.98 372.11,702.74 360.83,695.38C352.49,689.95 348.72,681.02 350.69,671.5C352.46,662.96 360.39,656.28 369.88,654.51C379.24,652.76 388.92,653.24 398.64,653.05C399.4,646.81 394.73,641.69 388.84,640.14C379.03,637.57 369.73,640.5 360.93,646.29L353.17,631.05C368.21,621.19 386.74,619.14 403.54,625.3C413.42,628.93 419.96,638.12 420.45,648.83C421.2,665.44 420.91,681.17 420.68,698.35L401.15,698.48L400.61,690.23L400.62,690.22ZM395.26,679.78C399.1,676.3 399.84,671.52 399.3,666.78L378.91,667.22C375.78,667.29 372.55,670.78 371.9,673.3C371.14,676.26 372.02,680.21 375,681.96C381.31,685.65 389.63,684.89 395.25,679.78L395.26,679.78Z" style="fill-rule:nonzero;"/>
            <path d="M395.26,679.78C389.64,684.88 381.32,685.64 375.01,681.96C372.03,680.22 371.14,676.27 371.91,673.3C372.56,670.78 375.79,667.29 378.92,667.22L399.31,666.78C399.85,671.52 399.11,676.3 395.27,679.78L395.26,679.78Z" style="fill:white;fill-rule:nonzero;"/>
        </g>
    </g>
</svg>
